<?xml version="1.0" encoding="UTF-8"?> <!-- Generator: Adobe Illustrator 22.0.0, SVG Export Plug-In . SVG Version: 6.00 Build 0) --> <svg xmlns="http://www.w3.org/2000/svg" xmlns:xlink="http://www.w3.org/1999/xlink" id="Layer_1" x="0px" y="0px" viewBox="0 0 114.8 117.2" style="enable-background:new 0 0 114.8 117.2;" xml:space="preserve"> <style type="text/css"> .st0{fill:#FAA61A;} </style> <title>Flexpay_Logo_on white_with tagline</title> <path class="st0" d="M114.8,25.8C114.7,11.6,103.2,0,89,0H71.3c-1.8-0.1-11.2,0-18,6.6c-3,2.9-6.5,8.1-6.5,16.7V43c0,0,0,0.1,0,0.1 v19c0,3.4-0.8,5.8-2.4,7.3c-2.4,2.2-7.9,2.4-7.9,2.4c-1.7,0-12.7-0.6-22.6,6.8V62.2c0-5.9,2.6-8,4.6-9.1c1.9-0.9,3.9-1.4,6-1.5h10.9 V37.9H24.6c-1.1,0-10.9,0-17.9,6.9c-3,3-6.7,8.4-6.7,17.4c0,0,0,47.4,0,47.5v0.4c-0.1,3.8,2.8,7,6.6,7.1c3.8,0.1,7-2.8,7.1-6.6 c0-0.2,0-0.3,0-0.5c0-8.5,2.2-14.8,6.4-18.9c6.1-5.8,14-5.5,15.3-5.6s11,0.5,18-6c3.1-2.9,6.9-8.3,6.9-17.4V23.3 c0-3.1,0.7-5.3,2.3-6.8c2.4-2.4,6.7-2.8,8.2-2.8h18.1c6.7-0.2,12.2,5.1,12.4,11.7s-5.1,12.2-11.7,12.4c-0.2,0-0.5,0-0.7,0H71.8v13.7 H89C103.2,51.6,114.8,40,114.8,25.8"></path> </svg> 